<?xml version="1.0" standalone="no"?>
<!DOCTYPE svg PUBLIC "-//W3C//DTD SVG 1.1//EN" "http://www.w3.org/Graphics/SVG/1.1/DTD/svg11.dtd" >
<svg xmlns="http://www.w3.org/2000/svg">
<metadata>Generated by IcoMoon</metadata>
<defs>
<font id="Gocious-Icons" horiz-adv-x="1024">
<font-face units-per-em="1024" ascent="960" descent="-64" />
<missing-glyph horiz-adv-x="1024" />
<glyph unicode="&#x20;" horiz-adv-x="512" d="" />
<glyph unicode="&#xe900;" glyph-name="angle-down" d="M543.8 63.4c-18.2-18.2-48-18.2-65.8 0l-458.4 458.8c-18.2 18.2-18.2 47.8 0 66l44 44c18.2 18.2 47.8 18.2 66 0l381.4-381.4 381.4 381.4c18.2 18.2 47.8 18.2 66 0l44-44c18.2-18.2 18.2-47.8 0-66l-458.6-458.8z" />
<glyph unicode="&#xe901;" glyph-name="angle-left" d="M124.4 481l458.8 458.6c18.2 18.2 48 18.2 66 0l44-44c18.2-18.2 18.2-48 0-66l-381.4-381.4 381.4-381.4c18.2-18.2 18.2-48 0-66l-44-44c-18.2-18.2-48-18.2-66 0l-458.8 458.2c-18.2 18-18.2 47.8 0 66v0z" />
<glyph unicode="&#xe902;" glyph-name="angle-right" d="M894.6 481c18.2-18.2 18.2-48 0-65.8l-458.6-458.4c-18.2-18.2-47.8-18.2-66 0l-44 44c-18.2 18.2-18.2 47.8 0 66l381.4 381.4-381.6 381.4c-18.2 18.2-18.2 47.8 0 66l44 44c18.2 18.2 47.8 18.2 66 0l458.8-458.6z" />
<glyph unicode="&#xe903;" glyph-name="angle-up" d="M543.8 832.2l458.8-458.8c18.2-18.2 18.2-48 0-66l-44-44c-18.2-18.2-48-18.2-66 0l-381.6 381.4-381.4-381.4c-18.2-18.2-48-18.2-66 0l-44 44c-18.2 18.2-18.2 48 0 66l458.2 458.8c18 18.4 47.8 18.4 66 0v0z" />
<glyph unicode="&#xe904;" glyph-name="arrow-left" d="M969.4 526.8h-531.4l-79-79 78.8-78.8h531.6c26.6 0 48 21.4 48 48v61.6c0 26.8-21.4 48.2-48 48.2zM19.6 480.8l458.8 458.6c18.2 18.2 48 18.2 66 0l44-44c18.2-18.2 18.2-48 0-66l-381.4-381.4 381.4-381.4c18.2-18.2 18.2-48 0-66l-44-44c-18.2-18.2-48-18.2-66 0l-458.8 458.2c-18.2 18-18.2 47.6 0 66v0z" />
<glyph unicode="&#xe905;" glyph-name="arrow-right" d="M6 478.8v-61.6c0-26.6 21.4-48 48-48h531.6l78.8 78.8-79 79h-531.4c-26.6-0.2-48-21.6-48-48.2zM1003.8 480.8c18.2-18.2 18.2-48 0-65.8l-458.8-458.6c-18.2-18.2-47.8-18.2-66 0l-44 44c-18.2 18.2-18.2 47.8 0 66l381.4 381.6-381.4 381.4c-18.2 18.2-18.2 47.8 0 66l44 44c18.2 18.2 47.8 18.2 66 0l458.8-458.6z" />
<glyph unicode="&#xe906;" glyph-name="calendar" d="M838.6 14h-652.2c-59.8 0-108.4 48.6-108.4 108.4v536.2c0 59.8 48.6 108.4 108.4 108.4h652.4c59.8 0 108.4-48.6 108.4-108.4v-536.2c-0.2-59.8-48.8-108.4-108.6-108.4zM186.4 598c-30.6 0-55.4-24.8-55.4-55.4v-420.2c0-30.6 24.8-55.4 55.4-55.4h652.4c30.6 0 55.4 24.8 55.4 55.4v420.2c0 30.6-24.8 55.4-55.4 55.4h-652.4zM318.6 714h-49c-19.6 0-35.6 15.8-35.6 35.6v98c0 19.6 15.8 35.6 35.6 35.6h49c19.6 0 35.6-15.8 35.6-35.6v-98c-0.2-19.8-16-35.6-35.6-35.6zM754.6 714h-49c-19.6 0-35.6 15.8-35.6 35.6v98c0 19.6 15.8 35.6 35.6 35.6h49c19.6 0 35.6-15.8 35.6-35.6v-98c-0.2-19.8-16-35.6-35.6-35.6zM489.6 369.4c16.8-12 29.8-27.4 39-46.8 9.2-19.2 13.6-39.8 13.6-61.6 0-29-6.6-54.2-19.6-75.8s-31.6-38.2-55.4-49.6c-23.8-11.6-51.6-17.2-83.4-17.2-14.2 0-28.6 1.8-42.8 5.4s-26.8 8.4-37.4 14.2c-14.6 8-22 18.6-22 32.2 0 9.6 3.4 18.2 10.2 26.2s14.8 12 24.4 12c8 0 16.4-3 25.6-9 17-13 36-19.6 56.6-19.6 12.2 0 24 3 35.2 9.2s20.2 15 27 26.8c7 11.6 10.4 25 10.4 40.2 0 21.4-6.4 38-19.4 50-12.8 12-28.4 17.8-46.8 17.8-8 0-14.8-0.8-20.8-2.4s-9.6-2.6-10.8-3c-10.4-3.2-18.8-4.8-25.6-4.8-8.8 0-15.6 3-20.8 9.2s-7.8 13.8-7.8 23c0 5.6 1 10.6 3 14.8 2 4.4 5.4 9.2 10.2 14.2l92.2 100.6h-117.8c-9.6 0-17.4 3.2-23.8 9.6s-9.6 14.2-9.6 23.8c0 9.2 3.2 16.8 9.6 23s14.2 9.2 23.8 9.2h182.2c12 0 21-3.2 27.4-9.8s9.6-15.2 9.6-25.8c0-9.6-4.8-19-14.2-28.6l-79.8-88c21.6-1.2 40.8-7.6 57.8-19.4zM727.8 530.4c6.8-7 10.2-15.6 10.2-25.8v-344c0-10.4-3.8-19-11.4-25.8-7.6-7-16.8-10.4-28-10.4s-20.2 3.4-27.4 10.4c-7.2 7-10.8 15.6-10.8 25.8v282l-36.6-22.6c-6-3.6-12.4-5.4-19-5.4-10 0-18.4 3.8-25.2 11.4-7 7.6-10.4 15.8-10.4 25 0 6.4 1.6 12.2 5 17.8s7.8 10 13.4 13l89.8 53.6c6.8 3.6 15.2 5.4 25.6 5.4 9.8 0 18.2-3.6 24.8-10.4z" />
<glyph unicode="&#xe907;" glyph-name="close" d="M970.2 60l-64.2-64.2c-13.2-13.2-34.8-13.2-48.2 0l-344 344-344-344c-13.2-13.2-34.8-13.2-48.2 0l-63.8 64.2c-13.2 13.2-13.2 34.8 0 48.2l344 344-344 343.8c-13.2 13.2-13.2 34.8 0 48.2l64.2 64c13.2 13.2 34.8 13.2 48.2 0l344-344 344 344c13.2 13.2 34.8 13.2 48.2 0l63.8-64.2c13.2-13.2 13.2-34.8 0-48.2l-344-344 344-344c13.2-13 13.2-34.6 0-47.8z" />
<glyph unicode="&#xe908;" glyph-name="dots" d="M299.6 448c0-82.732-67.068-149.8-149.8-149.8s-149.8 67.068-149.8 149.8c0 82.732 67.068 149.8 149.8 149.8s149.8-67.068 149.8-149.8zM711.8 448c0-82.732-67.068-149.8-149.8-149.8s-149.8 67.068-149.8 149.8c0 82.732 67.068 149.8 149.8 149.8s149.8-67.068 149.8-149.8zM1124 448c0-82.732-67.068-149.8-149.8-149.8s-149.8 67.068-149.8 149.8c0 82.732 67.068 149.8 149.8 149.8s149.8-67.068 149.8-149.8z" />
<glyph unicode="&#xe909;" glyph-name="download" d="M456 911.2v-461.4l53.8-53.8 53.6 53.6v461.6c0 18-14.6 32.6-32.6 32.6h-42c-18.2 0.2-32.8-14.4-32.8-32.6zM487.4 269.2l-312 312c-12.4 12.4-12.4 32.6 0 45l30 30c12.4 12.4 32.6 12.4 45 0l259.4-259.4 259.4 259.4c12.4 12.4 32.6 12.4 45 0l30-30c12.4-12.4 12.4-32.6 0-45l-311.8-312c-12.4-12.4-32.6-12.4-45 0v0zM920 198h-812.6c-34.2 0-62-27.8-62-62v-124.2c0-34.2 27.8-62 62-62h812.6c34.2 0 62 27.8 62 62v124.2c0 34.2-27.8 62-62 62zM207.6 44.6c0-6.8-5.6-12.4-12.4-12.4h-58.4c-6.8 0-12.4 5.6-12.4 12.4v58.4c0 6.8 5.6 12.4 12.4 12.4h58.4c6.8 0 12.4-5.6 12.4-12.4v-58.4z" />
<glyph unicode="&#xe90a;" glyph-name="feature-family" d="M898.2 15.2h-625.4c-57.2 0-103.8 46.6-103.8 103.8h50.8c0-29.2 23.8-53.2 53.2-53.2h625.2c29.2 0 53.2 23.8 53.2 53.2v514c0 29.2-23.8 53.2-53.2 53.2v50.8c57.2 0 103.8-46.6 103.8-103.8v-514c0-57.4-46.6-104-103.8-104zM753.2 160.2h-625.4c-57.2 0-103.8 46.6-103.8 103.8v514c0 57.2 46.6 103.8 103.8 103.8h625.2c57.2 0 103.8-46.6 103.8-103.8v-514c0.2-57.2-46.4-103.8-103.6-103.8zM127.8 831.2c-29.2 0-53.2-23.8-53.2-53.2v-514c0-29.2 23.8-53.2 53.2-53.2h625.2c29.2 0 53.2 23.8 53.2 53.2v514c0 29.2-23.8 53.2-53.2 53.2h-625.2zM440.4 733.2l63.6-147 159.4-15.2-120-105.8 35-156.2-138 81.4-137.8-81.4 35 156.2-120.2 105.8 159.4 15.2z" />
<glyph unicode="&#xe90b;" glyph-name="clock" d="M512 948c-277 0-501.4-224.4-501.4-501.4s224.4-501.4 501.4-501.4 501.4 224.4 501.4 501.4-224.4 501.4-501.4 501.4zM512 42.2c-223.4 0-404.4 181-404.4 404.4s181 404.4 404.4 404.4 404.4-181 404.4-404.4-181-404.4-404.4-404.4zM755.2 615.8l-46.4 46.4c-9.2 9.2-24 9.2-33 0l-160.4-160.4-100.4 100.2c-9.2 9.2-24 9.2-33 0l-46.4-46.4c-9.2-9.2-9.2-24 0-33l163.2-163.2c9.2-9.2 24-9.2 33 0l223.4 223.4c9.2 9 9.2 23.8 0 33z" />
<glyph unicode="&#xe90c;" glyph-name="plus" d="M559.4-47.8h-90.8c-18.8 0-34 15.4-34 34v386.4h-386.4c-18.8 0-34 15.4-34 34v90.8c0 18.8 15.4 34 34 34h386.4v386.4c0 18.8 15.4 34 34 34h90.8c18.8 0 34-15.4 34-34v-386.4h386.4c18.8 0 34-15.4 34-34v-90.8c0-18.8-15.4-34-34-34h-386.4v-386.4c0-18.8-15.4-34-34-34z" />
<glyph unicode="&#xe90d;" glyph-name="programs" d="M204 656.2h-113.6c-28.8 0-52 23.2-52 52v40.8c0 28.8 23.2 52 52 52h113.6c28.8 0 52-23.2 52-52v-40.8c0.2-28.8-23.2-52-52-52zM937 656.2h-570.4c-28.8 0-52 23.2-52 52v40.8c0 28.8 23.2 52 52 52h570.2c28.8 0 52-23.2 52-52v-40.8c0.2-28.8-23-52-51.8-52zM823.4 519h113.6c28.8 0 52-23.2 52-52v-40.8c0-28.8-23.2-52-52-52h-113.6c-28.8 0-52 23.2-52 52v40.8c-0.2 28.6 23.2 52 52 52zM90.4 519h570.2c28.8 0 52-23.2 52-52v-40.8c0-28.8-23.2-52-52-52h-570.2c-28.8 0-52 23.2-52 52v40.8c0 28.6 23.2 52 52 52zM436.2 91.8h-345.8c-28.8 0-52 23.2-52 52v40.8c0 28.8 23.2 52 52 52h345.8c28.8 0 52-23.2 52-52v-40.8c0.2-28.6-23.2-52-52-52zM937 91.8h-348c-28.8 0-52 23.2-52 52v40.8c0 28.8 23.2 52 52 52h347.8c28.8 0 52-23.2 52-52v-40.8c0.2-28.6-23-52-51.8-52z" />
<glyph unicode="&#xe90e;" glyph-name="reports" d="M81.4 880.2h53.8v-866.4h-53.8v866.4zM81.4 67.8h866.4v-53.8h-866.4v53.8zM214.8 359.4v154.2l220.2 187.4 259-50 253.8 229.2v-152.2l-224.8-205.2-258 49.8zM465 158.6h-30v298.4l30 25.6zM244.8 158.6h-30v110.8l30 25.6zM723 158.6h-30v280l30-5.4zM214.8 188.6h733v-30h-733v30zM348.6 383.4l34.2 30h565v-30zM947.8 158.6h-30v452.2l30 27.2z" />
<glyph unicode="&#xe90f;" glyph-name="search" d="M972.2 64l-193.4 193.4c54.2 69 86.6 155.8 86.6 250.2 0 224-181.6 405.8-405.8 405.8-224 0-405.6-181.6-405.6-405.6s181.6-405.8 405.6-405.8c94.6 0 181.6 32.4 250.6 86.6l193.2-193.2c10-10 26.2-10 36.4 0l32.4 32.4c10 10 10 26.2 0 36.2zM150.8 507.6c0 170.4 138.4 308.8 308.8 308.8s308.8-138.2 308.8-308.8-138.2-308.6-308.8-308.6-308.8 138.2-308.8 308.6z" />
<glyph unicode="&#xe910;" glyph-name="upload" d="M563.4-15.4v461.4l-53.8 53.8-53.6-53.6v-461.6c0-18 14.6-32.6 32.6-32.6h42c18.2-0.2 32.8 14.4 32.8 32.6zM532 626.6l312-312c12.4-12.4 12.4-32.6 0-45l-30-30c-12.4-12.4-32.6-12.4-45 0l-259.2 259.6-259.6-259.6c-12.4-12.4-32.6-12.4-45 0l-30 30c-12.4 12.4-12.4 32.6 0 45l311.8 312c12.4 12.4 32.6 12.4 45 0v0zM920 960h-812.6c-34.2 0-62-27.8-62-62v-124.2c0-34.2 27.8-62 62-62h812.6c34.2 0 62 27.8 62 62v124.2c0 34.2-27.8 62-62 62zM207.6 806.6c0-6.8-5.6-12.4-12.4-12.4h-58.4c-6.8 0-12.4 5.6-12.4 12.4v58.4c0 6.8 5.6 12.4 12.4 12.4h58.4c6.8 0 12.4-5.6 12.4-12.4v-58.4z" />
<glyph unicode="&#xe911;" glyph-name="comments-o" d="M391 859.2c-182.6 0-330.6-127.6-330.6-284.8 0-43.6 11.4-85 31.8-122-7.2-24-36-118-38.2-148.8-0.8-10.8 3.8-21.8 26-22.8 32.4-1.2 157.2 22.4 177.2 33 41-15.6 86.2-24.4 133.8-24.4 182.6 0 330.6 127.6 330.6 284.8s-148 285-330.6 285zM391 349.4c-22.8 0-45 2.4-66 6.8 0 0 0 0 0.2 0 0 0-0.2 0-0.4 0-24.2 5.2-47.2 13-68.4 23.2-62.8-28.6-128.8-61-144.6-62.4-22-2-20.6 7.2-16.2 17 14.6 33 51.4 80.6 70.4 115.8-28.6 35.6-45.4 78.4-45.4 124.6 0 124 121.4 224.8 270.6 224.8s270.6-100.8 270.6-224.8-121.6-225-270.8-225zM936 224c20.4 37 31.8 78.4 31.8 122 0 113.2-76.6 211-187.6 256.8 0.8-9.4 1.4-19 1.4-28.4 0-12.4-0.8-24.8-2.2-37.2 77-39.6 128.6-110.6 128.6-191.2 0-46-16.8-88.8-45.4-124.6 18.8-35.2 55.8-82.8 70.4-115.8 4.4-9.8 6-19-16.2-17-15.8 1.4-81.8 33.8-144.6 62.4-21.2-10.2-44.2-18-68.4-23.2-0.2 0-0.4 0-0.4 0s0 0 0.2 0c-21.2-4.4-43.4-6.8-66-6.8-98 0-184.2 43.6-231.6 108.6-4.8-0.2-9.8-0.2-14.6-0.2-19.4 0-38.6 1.2-57.4 3.6 50.8-101.2 167.6-172 303.6-172 47.6 0 92.8 8.6 133.8 24.4 20-10.6 144.8-34.4 177.2-33 22.2 0.8 26.8 12 26 22.8-2.6 30.6-31.4 124.8-38.6 148.8z" />
<glyph unicode="&#xe912;" glyph-name="comments-o-left" d="M838.4 814.2l124.8 124.8c6.2 6.2 16.6 6.2 22.8 0l15.2-15.2c6.2-6.2 6.2-16.6 0-22.8l-98-98 98-98c6.2-6.2 6.2-16.6 0-22.8l-15.2-15.2c-6.2-6.2-16.6-6.2-22.8 0l-124.8 124.4c-6 6.6-6 16.8 0 22.8v0zM391 823.2c-182.6 0-330.6-127.6-330.6-284.8 0-43.6 11.4-85 31.8-122-7.2-24-36-118-38.2-148.8-0.8-10.8 3.8-21.8 26-22.8 32.4-1.2 157.2 22.4 177.2 33 41-15.6 86.2-24.4 133.8-24.4 182.6 0 330.6 127.6 330.6 284.8s-148 285-330.6 285zM391 313.4c-22.8 0-45 2.4-66 6.8 0 0 0 0 0.2 0 0 0-0.2 0-0.4 0-24.2 5.2-47.2 13-68.4 23.2-62.8-28.6-128.8-61-144.6-62.4-22-2-20.6 7.2-16.2 17 14.6 33 51.4 80.6 70.4 115.8-28.6 35.6-45.4 78.4-45.4 124.6 0 124 121.4 224.8 270.6 224.8s270.6-100.8 270.6-224.8-121.6-225-270.8-225zM936 188c20.4 37 31.8 78.4 31.8 122 0 113.2-76.6 211-187.6 256.8 0.8-9.4 1.4-19 1.4-28.4 0-12.4-0.8-24.8-2.2-37.2 77-39.6 128.6-110.6 128.6-191.2 0-46-16.8-88.8-45.4-124.6 18.8-35.2 55.8-82.8 70.4-115.8 4.4-9.8 6-19-16.2-17-15.8 1.4-81.8 33.8-144.6 62.4-21.2-10.2-44.2-18-68.4-23.2-0.2 0-0.4 0-0.4 0s0 0 0.2 0c-21.2-4.4-43.4-6.8-66-6.8-98 0-184.2 43.6-231.6 108.6-4.8-0.2-9.8-0.2-14.6-0.2-19.4 0-38.6 1.2-57.4 3.6 50.8-101.2 167.6-172 303.6-172 47.6 0 92.8 8.6 133.8 24.4 20-10.6 144.8-34.4 177.2-33 22.2 0.8 26.8 12 26 22.8-2.6 30.6-31.4 124.8-38.6 148.8z" />
<glyph unicode="&#xe913;" glyph-name="comments-o-right" d="M1001.4 791.8l-124.8-124.8c-6.2-6.2-16.6-6.2-22.8 0l-15.2 15.2c-6.2 6.2-6.2 16.6 0 22.8l98 98-98 98c-6.2 6.2-6.2 16.6 0 22.8l15.2 15.2c6.2 6.2 16.6 6.2 22.8 0l124.8-124.4c6-6.6 6-16.8 0-22.8v0zM391 823.2c-182.6 0-330.6-127.6-330.6-284.8 0-43.6 11.4-85 31.8-122-7.2-24-36-118-38.2-148.8-0.8-10.8 3.8-21.8 26-22.8 32.4-1.2 157.2 22.4 177.2 33 41-15.6 86.2-24.4 133.8-24.4 182.6 0 330.6 127.6 330.6 284.8s-148 285-330.6 285zM391 313.4c-22.8 0-45 2.4-66 6.8 0 0 0 0 0.2 0 0 0-0.2 0-0.4 0-24.2 5.2-47.2 13-68.4 23.2-62.8-28.6-128.8-61-144.6-62.4-22-2-20.6 7.2-16.2 17 14.6 33 51.4 80.6 70.4 115.8-28.6 35.6-45.4 78.4-45.4 124.6 0 124 121.4 224.8 270.6 224.8s270.6-100.8 270.6-224.8-121.6-225-270.8-225zM936 188c20.4 37 31.8 78.4 31.8 122 0 113.2-76.6 211-187.6 256.8 0.8-9.4 1.4-19 1.4-28.4 0-12.4-0.8-24.8-2.2-37.2 77-39.6 128.6-110.6 128.6-191.2 0-46-16.8-88.8-45.4-124.6 18.8-35.2 55.8-82.8 70.4-115.8 4.4-9.8 6-19-16.2-17-15.8 1.4-81.8 33.8-144.6 62.4-21.2-10.2-44.2-18-68.4-23.2-0.2 0-0.4 0-0.4 0s0 0 0.2 0c-21.2-4.4-43.4-6.8-66-6.8-98 0-184.2 43.6-231.6 108.6-4.8-0.2-9.8-0.2-14.6-0.2-19.4 0-38.6 1.2-57.4 3.6 50.8-101.2 167.6-172 303.6-172 47.6 0 92.8 8.6 133.8 24.4 20-10.6 144.8-34.4 177.2-33 22.2 0.8 26.8 12 26 22.8-2.6 30.6-31.4 124.8-38.6 148.8z" />
<glyph unicode="&#xe914;" glyph-name="star-o" d="M514 757.4l81.8-189 14-32.6 35.4-3.4 205.2-19.4-181.2-159.6 7.8-34.6 45-201-208 122.8-30.6-18-177.4-104.8 45 201 7.8 34.6-26.6 23.4-154.6 136.2 240.6 22.8 14 32.6 81.8 189zM514 908.6l-137-316.2-343-32.6 258.4-228-75.2-336.4 296.8 175.4 296.6-175.4-75.2 336.4 258.4 228-343 32.4-136.8 316.4z" />
<glyph unicode="&#xe915;" glyph-name="star" d="M514 908.6l137-316.4 343-32.4-258.4-228 75-336.4-296.6 175.4-296.6-175.4 75 336.4-258.4 228 343 32.4z" />
<glyph unicode="&#xe916;" glyph-name="go" d="M750.080 297.643c-132.096 1.877-222.891 96.939-221.013 231.253 1.707 124.416 101.035 215.723 232.789 213.675 119.467-1.707 213.163-101.035 211.627-224.256-1.536-128.512-96.597-222.379-223.403-220.672zM898.219 518.997c0.341 83.627-64.341 152.747-143.701 153.259-82.773 0.512-149.845-67.413-149.675-151.893 0.171-84.821 66.56-153.771 148.309-154.112 78.336-0.171 144.725 69.632 145.067 152.747zM272.896 297.643c-132.267 1.877-223.061 96.939-221.184 231.253 1.707 124.416 101.035 215.723 232.789 213.675 119.467-1.707 213.163-101.035 211.627-224.256-1.536-128.512-96.427-222.379-223.232-220.672zM420.864 518.997c0.341 83.627-64.341 152.747-143.701 153.259-82.773 0.512-149.845-67.413-149.675-151.893 0.171-84.821 66.56-153.771 148.309-154.112 78.507-0.171 144.725 69.632 145.067 152.747zM454.997 742.912c-27.307 0.171-48.981 21.845-48.128 48.299 0.683 25.429 22.699 46.080 49.152 45.909 25.429-0.171 47.957-22.869 47.104-47.787-0.853-26.453-21.845-46.592-48.128-46.421zM419.84 264.192c-9.899-75.435-71.68-134.997-144.384-134.656-74.752 0.341-136.704 57.856-147.285 132.096v0c0 0.171 0 0.341 0 0.512v0c-0.171 0.683-0.341 1.365-0.341 2.219h-76.117c11.093-120.832 97.792-202.411 221.184-203.947 120.832-1.365 212.821 84.309 223.061 203.947h-76.117z" />
</font>
</defs>
</svg>
